<svg xmlns="http://www.w3.org/2000/svg" xmlns:xlink="http://www.w3.org/1999/xlink" width="141.401" height="35.7" viewBox="0 0 141.401 35.7">
  <defs>
    <clipPath id="clip-path">
      <rect width="141.401" height="35.7" fill="none"/>
    </clipPath>
  </defs>
  <g id="Artwork_2" data-name="Artwork 2" clip-path="url(#clip-path)">
    <g id="Artwork_2-2" data-name="Artwork 2">
      <path id="Path_686" data-name="Path 686" d="M124.5,0H100.2V6.1h23.9c8.2,0,10.7,2.6,11.3,6.6H110.9c-9.1,0-13.2,3.5-13.2,11.4s4.1,11.5,13.3,11.5h30.4V15.3C141.5,5,135.9,0,124.5,0m11.1,29.6H111.7c-7.5,0-7.8-1.7-7.8-5.5s.8-5.3,7.9-5.3h23.7Z" fill="#233249"/>
      <path id="Path_687" data-name="Path 687" d="M53.2,22.7H77.5c9.1,0,13.2-3.5,13.2-11.3S86.7,0,77.4,0h-13C49,0,46.8,8.6,46.8,17.9S49,35.7,64.3,35.7H89.2v-6H64.8c-8.4,0-10.8-2.2-11.6-6.9M64.8,5.9h12c7.1,0,7.8,1.7,7.8,5.5s-.7,5.2-7.9,5.2H52.9C53.1,9.1,55,5.9,64.8,5.9" fill="#233249"/>
      <path id="Path_688" data-name="Path 688" d="M35,0,6,27.7V0H0V35.7H6.4L20.3,22.4,36.1,35.7h9.5L24.7,18.2,43.7,0Z" fill="#233249"/>
    </g>
  </g>
</svg>
